<svg width="71" height="71" viewBox="0 0 71 71" fill="none" xmlns="http://www.w3.org/2000/svg">
<path d="M8.06641 35.6931C8.06641 22.7186 8.06641 16.2285 12.0967 12.1982C16.1269 8.16797 22.6142 8.16797 35.5916 8.16797C48.566 8.16797 55.0562 8.16797 59.0864 12.1982C63.1167 16.2285 63.1167 22.7157 63.1167 35.6931C63.1167 48.6676 63.1167 55.1577 59.0864 59.188C55.0562 63.2183 48.5689 63.2183 35.5916 63.2183C22.6171 63.2183 16.1269 63.2183 12.0967 59.188C8.06641 55.1577 8.06641 48.6705 8.06641 35.6931Z" stroke="black" stroke-width="4.34608" stroke-linecap="round" stroke-linejoin="round"/>
<path d="M51.5502 19.7578H51.5213M48.6297 35.6934C48.6297 39.1514 47.256 42.4677 44.8109 44.9128C42.3657 47.358 39.0494 48.7317 35.5915 48.7317C32.1335 48.7317 28.8172 47.358 26.372 44.9128C23.9269 42.4677 22.5532 39.1514 22.5532 35.6934C22.5532 32.2355 23.9269 28.9191 26.372 26.474C28.8172 24.0289 32.1335 22.6552 35.5915 22.6552C39.0494 22.6552 42.3657 24.0289 44.8109 26.474C47.256 28.9191 48.6297 32.2355 48.6297 35.6934Z" stroke="black" stroke-width="4.34608" stroke-linecap="round" stroke-linejoin="round"/>
</svg>
