<svg width="7" height="12" viewBox="0 0 7 12" fill="none" xmlns="http://www.w3.org/2000/svg">
<path d="M6.83962 2.06646V1.03119C6.83962 0.941456 6.7365 0.891902 6.66685 0.946813L0.629351 5.66244C0.578054 5.70233 0.536546 5.75341 0.507994 5.81179C0.479442 5.87016 0.4646 5.93429 0.4646 5.99927C0.4646 6.06425 0.479442 6.12838 0.507994 6.18675C0.536546 6.24512 0.578054 6.29621 0.629351 6.3361L6.66685 11.0517C6.73783 11.1066 6.83962 11.0571 6.83962 10.9673V9.93208C6.83962 9.86646 6.80882 9.80351 6.75792 9.76333L1.93649 5.99994L6.75792 2.23521C6.80882 2.19503 6.83962 2.13208 6.83962 2.06646Z" fill="black" fill-opacity="0.85"/>
</svg>
