<svg width="33" height="32" viewBox="0 0 33 32" fill="none" xmlns="http://www.w3.org/2000/svg">
<path d="M26.4801 26.8721L18.1307 18.5227C17.4641 19.0907 16.6974 19.5303 15.8307 19.8414C14.9641 20.1525 14.0929 20.3081 13.2174 20.3081C11.0823 20.3081 9.27517 19.5689 7.79606 18.0907C6.31695 16.6125 5.57739 14.8058 5.57739 12.6707C5.57739 10.5356 6.31606 8.72806 7.79339 7.24806C9.27073 5.76806 11.0769 5.02717 13.2121 5.02539C15.3472 5.02362 17.1552 5.76317 18.6361 7.24406C20.1169 8.72495 20.8574 10.5325 20.8574 12.6667C20.8574 13.5929 20.6934 14.4894 20.3654 15.3561C20.0374 16.2227 19.6063 16.9641 19.0721 17.5801L27.4214 25.9281L26.4801 26.8721ZM13.2187 18.9734C14.9876 18.9734 16.4809 18.3645 17.6987 17.1467C18.9165 15.9289 19.5254 14.4352 19.5254 12.6654C19.5254 10.8956 18.9165 9.40228 17.6987 8.18539C16.4809 6.9685 14.9876 6.35962 13.2187 6.35873C11.4498 6.35784 9.95606 6.96673 8.73739 8.18539C7.51873 9.40406 6.90984 10.8974 6.91073 12.6654C6.91161 14.4334 7.5205 15.9267 8.73739 17.1454C9.95428 18.3641 11.4476 18.973 13.2174 18.9721" fill="#888888"/>
</svg>
