<svg width="59" height="59" viewBox="0 0 59 59" fill="none" xmlns="http://www.w3.org/2000/svg">
<g clip-path="url(#clip0_126_468)">
<path d="M2.97119 52.4585V6.92818C2.97119 5.83042 3.40728 4.77762 4.18351 4.00138C4.95975 3.22515 6.01255 2.78906 7.11031 2.78906H52.6406C53.7384 2.78906 54.7912 3.22515 55.5674 4.00138C56.3437 4.77762 56.7798 5.83042 56.7798 6.92818V52.4585C56.7798 53.5563 56.3437 54.6091 55.5674 55.3853C54.7912 56.1615 53.7384 56.5976 52.6406 56.5976H40.2233V36.9782H43.162C43.8317 36.9782 44.4739 36.7122 44.9474 36.2387C45.4209 35.7652 45.6869 35.123 45.6869 34.4533V31.2662C45.6858 30.5969 45.4195 29.9553 44.9462 29.4821C44.4729 29.0088 43.8313 28.7424 43.162 28.7413H40.3888V24.8506C40.3888 21.3737 41.9617 21.3737 43.5346 21.3737H45.5627C45.8959 21.3874 46.2279 21.3278 46.5355 21.1991C46.843 21.0703 47.1186 20.8756 47.3426 20.6287C47.5831 20.3997 47.7735 20.1233 47.9018 19.8169C48.03 19.5105 48.0933 19.1809 48.0876 18.8488V15.7859C48.0998 15.4486 48.045 15.1122 47.9266 14.7961C47.8081 14.48 47.6283 14.1905 47.3974 13.9443C47.1666 13.698 46.8893 13.4999 46.5815 13.3613C46.2737 13.2228 45.9415 13.1465 45.6041 13.1369H40.8441C39.4552 13.0846 38.0716 13.3346 36.7887 13.8693C35.5058 14.4041 34.3543 15.2109 33.4137 16.2342C32.4731 17.2574 31.7658 18.4727 31.3408 19.7959C30.9157 21.1192 30.7829 22.519 30.9516 23.8986V28.7413H28.3026C27.9676 28.7359 27.6348 28.7971 27.3237 28.9215C27.0125 29.046 26.7293 29.2311 26.4904 29.4661C26.2516 29.7011 26.0619 29.9813 25.9324 30.2903C25.803 30.5994 25.7363 30.9311 25.7364 31.2662V34.4533C25.7363 34.7884 25.803 35.1202 25.9324 35.4292C26.0619 35.7383 26.2516 36.0185 26.4904 36.2535C26.7293 36.4885 27.0125 36.6736 27.3237 36.798C27.6348 36.9224 27.9676 36.9837 28.3026 36.9782H30.9516V56.5976H7.11031C6.01255 56.5976 4.95975 56.1615 4.18351 55.3853C3.40728 54.6091 2.97119 53.5563 2.97119 52.4585Z" stroke="black" stroke-width="2.89738" stroke-linecap="round" stroke-linejoin="round"/>
</g>
<defs>
<clipPath id="clip0_126_468">
<rect width="57.9477" height="57.9477" fill="white" transform="translate(0.901367 0.720703)"/>
</clipPath>
</defs>
</svg>
